<?xml version="1.0" encoding="UTF-8"?>
<!DOCTYPE svg PUBLIC "-//W3C//DTD SVG 1.1//EN" "http://www.w3.org/Graphics/SVG/1.1/DTD/svg11.dtd">
<svg xmlns="http://www.w3.org/2000/svg" version="1.1" width="610px" height="409px" style="shape-rendering:geometricPrecision; text-rendering:geometricPrecision; image-rendering:optimizeQuality; fill-rule:evenodd; clip-rule:evenodd" xmlns:xlink="http://www.w3.org/1999/xlink">
<g><path style="opacity:0.392" fill="#d1c880" d="M 135.5,54.5 C 135.062,54.5654 134.728,54.3988 134.5,54C 136.439,53.0922 137.439,51.5922 137.5,49.5C 132.625,50.2806 127.959,51.6139 123.5,53.5C 124.749,51.8639 126.416,50.6972 128.5,50C 133.386,48.6386 138.219,47.1386 143,45.5C 144.404,45.5093 145.57,46.0093 146.5,47C 143.151,50.0045 139.484,52.5045 135.5,54.5 Z"/></g>
<g><path style="opacity:0.869" fill="#6ca673" d="M 146.5,86.5 C 147.929,81.5668 149.096,76.5668 150,71.5C 153.332,66.0886 156.665,60.7553 160,55.5C 160.483,54.552 160.649,53.552 160.5,52.5C 156.771,53.0128 153.104,53.8461 149.5,55C 145.249,57.4399 140.915,59.6066 136.5,61.5C 145.713,54.811 155.879,49.811 167,46.5C 168.28,46.6135 169.113,47.2801 169.5,48.5C 165.103,53.6132 160.936,58.9466 157,64.5C 153.158,71.844 149.658,79.1774 146.5,86.5 Z"/></g>
<g><path style="opacity:1" fill="#f2bd3a" d="M 135.5,54.5 C 134.71,55.4013 133.71,56.0679 132.5,56.5C 130.801,56.3398 129.134,56.5065 127.5,57C 120.907,64.39 113.74,71.2233 106,77.5C 105.482,80.0226 104.148,82.0226 102,83.5C 101.506,85.1341 101.34,86.8008 101.5,88.5C 93.8645,89.0207 86.5312,88.0207 79.5,85.5C 81.755,81.2413 84.4217,77.2413 87.5,73.5C 97.9714,64.2602 109.971,57.5935 123.5,53.5C 127.959,51.6139 132.625,50.2806 137.5,49.5C 137.439,51.5922 136.439,53.0922 134.5,54C 134.728,54.3988 135.062,54.5654 135.5,54.5 Z"/></g>
<g><path style="opacity:1" fill="#51a759" d="M 146.5,86.5 C 146.186,89.9466 145.352,93.2799 144,96.5C 143.275,97.0585 142.442,97.3918 141.5,97.5C 131.228,95.8184 120.895,94.6518 110.5,94C 109.09,93.6322 108.09,92.7989 107.5,91.5C 115.193,79.4753 124.86,69.4753 136.5,61.5C 140.915,59.6066 145.249,57.4399 149.5,55C 153.104,53.8461 156.771,53.0128 160.5,52.5C 160.649,53.552 160.483,54.552 160,55.5C 156.665,60.7553 153.332,66.0886 150,71.5C 149.096,76.5668 147.929,81.5668 146.5,86.5 Z"/></g>
<g><path style="opacity:0.275" fill="#dfc15c" d="M 132.5,56.5 C 120.222,66.2004 109.888,77.7004 101.5,91C 100.128,91.4017 98.7946,91.9017 97.5,92.5C 89.8264,90.6081 82.1597,88.6081 74.5,86.5C 73.4173,85.635 73.2506,84.635 74,83.5C 78.1144,79.5391 82.6144,76.2058 87.5,73.5C 84.4217,77.2413 81.755,81.2413 79.5,85.5C 86.5312,88.0207 93.8645,89.0207 101.5,88.5C 101.34,86.8008 101.506,85.1341 102,83.5C 104.148,82.0226 105.482,80.0226 106,77.5C 113.74,71.2233 120.907,64.39 127.5,57C 129.134,56.5065 130.801,56.3398 132.5,56.5 Z"/></g>
<g><path style="opacity:1" fill="#f3bd36" d="M 88.5,95.5 C 89.1667,95.5 89.5,95.8333 89.5,96.5C 91.1372,98.9233 91.6372,101.59 91,104.5C 89.0045,109.119 87.0045,113.785 85,118.5C 80.6269,123.619 78.6269,129.619 79,136.5C 77.2494,138.49 76.2494,140.823 76,143.5C 72.6064,144.456 69.1064,144.789 65.5,144.5C 64.8333,144.167 64.1667,143.833 63.5,143.5C 59.8511,141.03 55.8511,138.863 51.5,137C 47.3966,137.295 44.0633,135.961 41.5,133C 43.7547,130.275 45.088,127.108 45.5,123.5C 48.172,121.575 49.172,118.908 48.5,115.5C 49.5,115.5 50.5,115.5 51.5,115.5C 54.5863,109.401 59.0863,104.401 65,100.5C 65.4922,99.451 65.3256,98.451 64.5,97.5C 65.5,96.6667 66.5,95.8333 67.5,95C 73.5963,94.2663 79.5963,94.7663 85.5,96.5C 86.7261,96.4805 87.7261,96.1471 88.5,95.5 Z"/></g>
<g><path style="opacity:0.999" fill="#d4594d" d="M 215.5,79.5 C 243.833,79.5 272.167,79.5 300.5,79.5C 319.899,79.7861 336.399,86.7861 350,100.5C 353.945,105.393 357.112,110.727 359.5,116.5C 356.326,112.958 353.159,109.291 350,105.5C 348.921,107.394 347.587,107.727 346,106.5C 346.584,104.3 346.418,102.133 345.5,100C 343.5,99.6667 341.5,99.3333 339.5,99C 338.809,96.4536 337.476,94.2869 335.5,92.5C 332.268,89.4467 328.601,86.9467 324.5,85C 316.213,83.9367 308.046,82.77 300,81.5C 288.456,81.9319 276.956,82.5986 265.5,83.5C 265.167,83.1667 264.833,82.8333 264.5,82.5C 265.376,81.7492 266.376,81.2492 267.5,81C 249.995,80.8316 232.662,80.3316 215.5,79.5 Z"/></g>
<g><path style="opacity:1" fill="#eac360" d="M 88.5,95.5 C 87.7261,96.1471 86.7261,96.4805 85.5,96.5C 79.5963,94.7663 73.5963,94.2663 67.5,95C 66.5,95.8333 65.5,96.6667 64.5,97.5C 65.3256,98.451 65.4922,99.451 65,100.5C 59.0863,104.401 54.5863,109.401 51.5,115.5C 50.5,115.5 49.5,115.5 48.5,115.5C 52.9848,107.007 58.6515,99.3406 65.5,92.5C 66.6667,92.1667 67.8333,91.8333 69,91.5C 75.5247,92.7716 82.0247,94.1049 88.5,95.5 Z"/></g>
<g><path style="opacity:1" fill="#4da856" d="M 131.5,102.5 C 133.607,103.468 135.941,103.802 138.5,103.5C 138.257,109.184 137.757,114.851 137,120.5C 132.154,130.912 130.321,141.912 131.5,153.5C 119.822,152.973 108.155,152.306 96.5,151.5C 93.619,149.32 90.2856,148.32 86.5,148.5C 86.2338,144.395 86.7338,140.395 88,136.5C 92.5989,125.054 97.5989,113.721 103,102.5C 112.42,101.969 121.92,101.969 131.5,102.5 Z"/></g>
<g><path style="opacity:0.651" fill="#d75142" d="M 214.5,79.5 C 212.994,76.644 212.328,73.4774 212.5,70C 212.731,66.3239 213.065,62.6573 213.5,59C 214.073,54.3439 212.24,51.1773 208,49.5C 201,50.1667 194,50.8333 187,51.5C 186.055,51.0946 185.388,50.428 185,49.5C 183.726,53.9852 183.059,58.6519 183,63.5C 182.5,77.8295 182.333,92.1628 182.5,106.5C 188.741,106.287 194.908,105.62 201,104.5C 225.029,105.808 248.196,105.808 270.5,104.5C 281.593,104.987 292.593,106.321 303.5,108.5C 303.5,109.5 303.5,110.5 303.5,111.5C 309.855,110.478 315.355,112.144 320,116.5C 320.333,116.167 320.667,115.833 321,115.5C 323.44,119.576 326.106,123.576 329,127.5C 329.49,128.793 329.657,130.127 329.5,131.5C 327.997,128.511 325.997,125.844 323.5,123.5C 315.406,117.287 306.406,112.953 296.5,110.5C 295.391,109.71 294.058,109.21 292.5,109C 255.833,108.667 219.167,108.333 182.5,108C 181.341,88.2399 181.174,68.4065 182,48.5C 192.752,47.513 203.585,47.1797 214.5,47.5C 214.5,58.1667 214.5,68.8333 214.5,79.5 Z"/></g>
<g><path style="opacity:0.098" fill="#d28476" d="M 300.5,79.5 C 272.167,79.5 243.833,79.5 215.5,79.5C 215.167,79.5 214.833,79.5 214.5,79.5C 214.5,68.8333 214.5,58.1667 214.5,47.5C 203.585,47.1797 192.752,47.513 182,48.5C 181.174,68.4065 181.341,88.2399 182.5,108C 219.167,108.333 255.833,108.667 292.5,109C 294.058,109.21 295.391,109.71 296.5,110.5C 257.79,110.827 219.124,110.494 180.5,109.5C 179.5,88.5106 179.167,67.5106 179.5,46.5C 191.5,46.5 203.5,46.5 215.5,46.5C 215.5,57.1667 215.5,67.8333 215.5,78.5C 244.005,78.1687 272.338,78.502 300.5,79.5 Z"/></g>
<g><path style="opacity:1" fill="#e74b3c" d="M 214.5,79.5 C 214.833,79.5 215.167,79.5 215.5,79.5C 232.662,80.3316 249.995,80.8316 267.5,81C 266.376,81.2492 265.376,81.7492 264.5,82.5C 264.833,82.8333 265.167,83.1667 265.5,83.5C 276.956,82.5986 288.456,81.9319 300,81.5C 308.046,82.77 316.213,83.9367 324.5,85C 328.601,86.9467 332.268,89.4467 335.5,92.5C 337.476,94.2869 338.809,96.4536 339.5,99C 341.5,99.3333 343.5,99.6667 345.5,100C 346.418,102.133 346.584,104.3 346,106.5C 347.587,107.727 348.921,107.394 350,105.5C 353.159,109.291 356.326,112.958 359.5,116.5C 363.329,129.214 364.329,142.214 362.5,155.5C 362.732,157.798 363.399,159.965 364.5,162C 364.167,162.5 363.833,163 363.5,163.5C 362.712,162.23 361.712,161.23 360.5,160.5C 359.791,159.596 358.791,159.263 357.5,159.5C 357.099,155.93 355.099,153.764 351.5,153C 344.153,145.482 336.819,138.315 329.5,131.5C 329.657,130.127 329.49,128.793 329,127.5C 326.106,123.576 323.44,119.576 321,115.5C 320.667,115.833 320.333,116.167 320,116.5C 315.355,112.144 309.855,110.478 303.5,111.5C 303.5,110.5 303.5,109.5 303.5,108.5C 292.593,106.321 281.593,104.987 270.5,104.5C 248.196,105.808 225.029,105.808 201,104.5C 194.908,105.62 188.741,106.287 182.5,106.5C 182.333,92.1628 182.5,77.8295 183,63.5C 183.059,58.6519 183.726,53.9852 185,49.5C 185.388,50.428 186.055,51.0946 187,51.5C 194,50.8333 201,50.1667 208,49.5C 212.24,51.1773 214.073,54.3439 213.5,59C 213.065,62.6573 212.731,66.3239 212.5,70C 212.328,73.4774 212.994,76.644 214.5,79.5 Z"/></g>
<g><path style="opacity:0.992" fill="#6ea46d" d="M 131.5,102.5 C 121.92,101.969 112.42,101.969 103,102.5C 97.5989,113.721 92.5989,125.054 88,136.5C 86.7338,140.395 86.2338,144.395 86.5,148.5C 90.2856,148.32 93.619,149.32 96.5,151.5C 92.8371,151.048 89.1704,150.548 85.5,150C 84.4844,149.481 83.8178,148.647 83.5,147.5C 87.4305,130.861 93.5971,115.194 102,100.5C 112.026,99.2464 121.86,99.9131 131.5,102.5 Z"/></g>
<g><path style="opacity:0.882" fill="#e6bf60" d="M 48.5,115.5 C 49.172,118.908 48.172,121.575 45.5,123.5C 45.088,127.108 43.7547,130.275 41.5,133C 44.0633,135.961 47.3966,137.295 51.5,137C 55.8511,138.863 59.8511,141.03 63.5,143.5C 55.3902,141.854 47.3902,139.687 39.5,137C 38.8333,136 38.1667,135 37.5,134C 40.9981,127.683 44.6647,121.517 48.5,115.5 Z"/></g>
<g><path style="opacity:0.118" fill="#6484b8" d="M 319.5,138.5 C 313.97,138.628 308.637,137.961 303.5,136.5C 262.67,135.501 221.67,135.168 180.5,135.5C 180.737,136.791 180.404,137.791 179.5,138.5C 179.5,137.167 179.5,135.833 179.5,134.5C 221.501,134.333 263.501,134.5 305.5,135C 310.582,135.037 315.249,136.203 319.5,138.5 Z"/></g>
<g><path style="opacity:0.773" fill="#dfc161" d="M 89.5,96.5 C 91.5273,96.3379 93.5273,96.5045 95.5,97C 96.0219,97.5613 96.3552,98.228 96.5,99C 88.1822,113.829 82.1822,129.662 78.5,146.5C 73.9,146.72 69.5667,146.054 65.5,144.5C 69.1064,144.789 72.6064,144.456 76,143.5C 76.2494,140.823 77.2494,138.49 79,136.5C 78.6269,129.619 80.6269,123.619 85,118.5C 87.0045,113.785 89.0045,109.119 91,104.5C 91.6372,101.59 91.1372,98.9233 89.5,96.5 Z"/></g>
<g><path style="opacity:1" fill="#4f86f8" d="M 303.5,136.5 C 308.637,137.961 313.97,138.628 319.5,138.5C 320.5,138.5 321.5,138.5 322.5,138.5C 322.414,139.496 322.748,140.329 323.5,141C 325.392,141.973 327.392,142.64 329.5,143C 331.223,146.808 334.223,148.475 338.5,148C 342.132,150.63 345.465,153.63 348.5,157C 347.391,158.813 348.058,159.646 350.5,159.5C 350.64,161.124 349.973,162.29 348.5,163C 352.2,164.538 354.2,167.371 354.5,171.5C 356.94,173.109 358.107,175.443 358,178.5C 362.28,180.95 363.446,184.45 361.5,189C 367.904,208.057 366.07,226.224 356,243.5C 355,243.167 354,242.833 353,242.5C 352.178,244.788 351.511,247.122 351,249.5C 347.538,251.418 345.871,254.418 346,258.5C 344.4,259.866 342.567,260.866 340.5,261.5C 339.481,265.685 336.814,267.852 332.5,268C 328.595,271.952 323.929,274.286 318.5,275C 313.499,275.251 308.499,275.084 303.5,274.5C 303.5,275.5 303.5,276.5 303.5,277.5C 276.831,277.333 250.165,277.5 223.5,278C 220.635,278.183 217.969,278.683 215.5,279.5C 214.503,300.994 214.169,322.66 214.5,344.5C 203.828,344.667 193.161,344.5 182.5,344C 181.556,341.281 181.223,338.448 181.5,335.5C 182.117,335.389 182.617,335.056 183,334.5C 183.24,322.65 183.74,310.817 184.5,299C 183.225,284.505 183.225,270.005 184.5,255.5C 185.287,254.758 185.953,253.925 186.5,253C 216.5,252.667 246.5,252.333 276.5,252C 283.905,252.135 290.905,251.302 297.5,249.5C 304.102,248.617 310.435,246.617 316.5,243.5C 318.322,240.67 320.822,238.67 324,237.5C 326.748,232.334 329.748,227.334 333,222.5C 333.667,213.833 333.667,205.167 333,196.5C 330.936,191.642 329.269,186.642 328,181.5C 324.196,176.511 319.363,172.844 313.5,170.5C 312.571,169.311 312.238,167.978 312.5,166.5C 307.463,166.587 302.463,166.254 297.5,165.5C 294.059,164.807 290.725,163.807 287.5,162.5C 286.319,160.933 284.653,160.099 282.5,160C 273.67,158.216 264.837,156.716 256,155.5C 248.168,156.021 240.335,156.521 232.5,157C 231.672,157.915 230.672,158.581 229.5,159C 222.046,159.221 214.713,160.054 207.5,161.5C 207.5,162.5 207.5,163.5 207.5,164.5C 202.615,163.879 198.615,165.379 195.5,169C 191.496,170.086 187.662,171.586 184,173.5C 183.228,173.355 182.561,173.022 182,172.5C 181.5,160.505 181.333,148.505 181.5,136.5C 222.167,136.5 262.833,136.5 303.5,136.5 Z"/></g>
<g><path style="opacity:0.882" fill="#6aa672" d="M 131.5,102.5 C 134.518,102.335 137.518,102.502 140.5,103C 141.059,103.725 141.392,104.558 141.5,105.5C 137.198,122.583 134.531,139.917 133.5,157.5C 120.774,157.101 108.441,155.101 96.5,151.5C 108.155,152.306 119.822,152.973 131.5,153.5C 130.321,141.912 132.154,130.912 137,120.5C 137.757,114.851 138.257,109.184 138.5,103.5C 135.941,103.802 133.607,103.468 131.5,102.5 Z"/></g>
<g><path style="opacity:1" fill="#d4584a" d="M 359.5,116.5 C 363.667,123.166 366.167,130.499 367,138.5C 367.824,148.009 367.658,157.343 366.5,166.5C 365.262,167.412 363.928,167.579 362.5,167C 361.331,164.993 360.665,162.827 360.5,160.5C 361.712,161.23 362.712,162.23 363.5,163.5C 363.833,163 364.167,162.5 364.5,162C 363.399,159.965 362.732,157.798 362.5,155.5C 364.329,142.214 363.329,129.214 359.5,116.5 Z"/></g>
<g><path style="opacity:0.906" fill="#b8585e" d="M 323.5,123.5 C 325.997,125.844 327.997,128.511 329.5,131.5C 336.819,138.315 344.153,145.482 351.5,153C 355.099,153.764 357.099,155.93 357.5,159.5C 358.791,159.263 359.791,159.596 360.5,160.5C 360.665,162.827 361.331,164.993 362.5,167C 363.928,167.579 365.262,167.412 366.5,166.5C 366.5,168.5 366.5,170.5 366.5,172.5C 364.446,172.635 362.779,171.968 361.5,170.5C 361.5,170.167 361.5,169.833 361.5,169.5C 359.828,166.978 358.328,164.312 357,161.5C 356.329,160.748 355.496,160.414 354.5,160.5C 352.182,155.665 348.849,151.498 344.5,148C 339.913,144.788 335.08,141.955 330,139.5C 328.128,134.05 325.961,128.716 323.5,123.5 Z"/></g>
<g><path style="opacity:1" fill="#f3bc36" d="M 50.5,146.5 C 58.6891,148.543 66.6891,150.877 74.5,153.5C 70.9479,171.554 69.6146,189.887 70.5,208.5C 57.5817,206.66 44.915,203.993 32.5,200.5C 32.1667,200.5 31.8333,200.5 31.5,200.5C 30.4479,198.744 28.7812,198.077 26.5,198.5C 26.1624,179.806 29.1624,161.806 35.5,144.5C 37.5273,144.338 39.5273,144.505 41.5,145C 44.0481,147.801 47.0481,148.301 50.5,146.5 Z"/></g>
<g><path style="opacity:0.996" fill="#567fd3" d="M 303.5,136.5 C 262.833,136.5 222.167,136.5 181.5,136.5C 181.333,148.505 181.5,160.505 182,172.5C 182.561,173.022 183.228,173.355 184,173.5C 187.662,171.586 191.496,170.086 195.5,169C 198.615,165.379 202.615,163.879 207.5,164.5C 207.5,163.5 207.5,162.5 207.5,161.5C 214.713,160.054 222.046,159.221 229.5,159C 230.672,158.581 231.672,157.915 232.5,157C 240.335,156.521 248.168,156.021 256,155.5C 264.837,156.716 273.67,158.216 282.5,160C 284.653,160.099 286.319,160.933 287.5,162.5C 261.524,156.408 235.857,157.575 210.5,166C 201.875,168.656 193.542,171.823 185.5,175.5C 183.833,175.5 182.167,175.5 180.5,175.5C 180.828,163.322 180.495,151.322 179.5,139.5C 179.5,139.167 179.5,138.833 179.5,138.5C 180.404,137.791 180.737,136.791 180.5,135.5C 221.67,135.168 262.67,135.501 303.5,136.5 Z"/></g>
<g><path style="opacity:0.587" fill="#e1c473" d="M 74.5,153.5 C 75.6491,153.791 76.3158,154.624 76.5,156C 72.7888,173.563 71.7888,191.229 73.5,209C 72.646,210.022 71.646,210.855 70.5,211.5C 57.4955,208.605 44.8288,204.938 32.5,200.5C 44.915,203.993 57.5817,206.66 70.5,208.5C 69.6146,189.887 70.9479,171.554 74.5,153.5 Z"/></g>
<g><path style="opacity:0.686" fill="#e4c369" d="M 50.5,146.5 C 47.0481,148.301 44.0481,147.801 41.5,145C 39.5273,144.505 37.5273,144.338 35.5,144.5C 29.1624,161.806 26.1624,179.806 26.5,198.5C 28.7812,198.077 30.4479,198.744 31.5,200.5C 27.5415,200.541 25.2081,198.708 24.5,195C 24.8454,177.276 28.012,160.109 34,143.5C 34.5194,142.484 35.3527,141.818 36.5,141.5C 41.2704,143.199 45.937,144.865 50.5,146.5 Z"/></g>
<g><path style="opacity:0.997" fill="#221717" d="M 257.5,198.5 C 254.833,198.5 252.167,198.5 249.5,198.5C 236.913,194.333 232.413,185.667 236,172.5C 241.449,162.863 249.616,159.363 260.5,162C 272.174,168.492 275.341,177.992 270,190.5C 266.961,195.058 262.795,197.725 257.5,198.5 Z"/></g>
<g><path style="opacity:0.024" fill="#89aac3" d="M 179.5,139.5 C 180.495,151.322 180.828,163.322 180.5,175.5C 182.167,175.5 183.833,175.5 185.5,175.5C 184.122,176.234 182.622,176.901 181,177.5C 180.667,177.167 180.333,176.833 180,176.5C 179.5,164.171 179.333,151.838 179.5,139.5 Z"/></g>
<g><path style="opacity:0.998" fill="#67a56c" d="M 82.5,155.5 C 98.998,158.7 115.498,161.7 132,164.5C 131.628,183.146 131.462,201.813 131.5,220.5C 113.841,218.667 96.341,216 79,212.5C 77.4077,199.517 77.4077,186.517 79,173.5C 79.569,167.332 80.7357,161.332 82.5,155.5 Z"/></g>
<g><path style="opacity:1" fill="#4da856" d="M 84.5,159.5 C 89.5111,159.334 94.5111,159.501 99.5,160C 109.339,162.188 119.339,163.688 129.5,164.5C 129.667,181.503 129.5,198.503 129,215.5C 127.938,216.097 126.772,216.43 125.5,216.5C 124.91,214.793 122.577,213.793 118.5,213.5C 116.015,213.943 113.515,214.276 111,214.5C 101.909,212.801 92.7419,211.634 83.5,211C 82.6667,210.167 81.8333,209.333 81,208.5C 80.158,201.406 80.658,194.406 82.5,187.5C 80.8728,177.988 81.5395,168.655 84.5,159.5 Z"/></g>
<g><path style="opacity:1" fill="#f4bc35" d="M 73.5,234.5 C 74.6611,240.827 75.8277,247.16 77,253.5C 78.3161,254.974 79.3161,256.641 80,258.5C 82.3486,265.377 84.1819,272.377 85.5,279.5C 83.901,279.768 82.5676,279.434 81.5,278.5C 75.6095,277.613 69.9429,275.78 64.5,273C 63.8333,270 63.1667,267 62.5,264C 58.6449,264.192 56.9783,266.359 57.5,270.5C 54.6786,270.461 52.0119,269.795 49.5,268.5C 50.6651,267.416 51.9984,266.583 53.5,266C 50.8761,262.601 48.5428,262.768 46.5,266.5C 45.4217,263.561 43.9217,260.895 42,258.5C 41.6667,256.5 41.3333,254.5 41,252.5C 40.2569,254.645 39.4235,254.811 38.5,253C 36.8641,250.283 37.1975,247.95 39.5,246C 38.7471,244.513 37.9138,244.346 37,245.5C 36.7155,239.056 35.0488,233.056 32,227.5C 31.4872,222.718 30.8206,218.051 30,213.5C 33.6285,210.189 37.1285,210.189 40.5,213.5C 49.9558,215.697 59.2891,218.197 68.5,221C 70.2591,224.515 71.2591,228.348 71.5,232.5C 71.7472,233.713 72.4138,234.38 73.5,234.5 Z"/></g>
<g><path style="opacity:0.937" fill="#6aa36d" d="M 133.5,237.5 C 132.504,237.414 131.671,237.748 131,238.5C 131.038,234.668 130.205,231.168 128.5,228C 113.113,226.817 97.7799,225.317 82.5,223.5C 83.481,228.129 83.6477,232.796 83,237.5C 82.6174,238.056 82.1174,238.389 81.5,238.5C 81.1496,232.713 80.1496,227.046 78.5,221.5C 79.3481,220.009 80.6814,219.342 82.5,219.5C 98.3965,222.427 114.397,224.594 130.5,226C 132.259,229.534 133.259,233.368 133.5,237.5 Z"/></g>
<g><path style="opacity:0.031" fill="#c37d70" d="M 323.5,181.5 C 328.016,192.739 329.516,204.406 328,216.5C 327.626,217.416 327.126,218.25 326.5,219C 318.828,222.252 310.828,223.918 302.5,224C 262.262,224.17 222.096,224.67 182,225.5C 181.333,224.833 180.667,224.167 180,223.5C 179.333,211.5 179.333,199.5 180,187.5C 181.749,186.447 183.249,186.78 184.5,188.5C 183.167,188.5 181.833,188.5 180.5,188.5C 180.179,200.081 180.512,211.581 181.5,223C 225.184,223.926 268.851,223.593 312.5,222C 314.858,220.724 317.192,219.558 319.5,218.5C 321.722,218.822 323.556,218.155 325,216.5C 326.9,208.849 326.9,201.182 325,193.5C 324.013,189.847 321.68,187.513 318,186.5C 310.789,190.627 302.955,193.294 294.5,194.5C 300.207,192.65 305.874,190.483 311.5,188C 315.185,185.124 319.185,182.957 323.5,181.5 Z"/></g>
<g><path style="opacity:0.96" fill="#d25141" d="M 184.5,188.5 C 190.403,190.476 196.403,192.143 202.5,193.5C 205.223,195.188 208.223,196.688 211.5,198C 215.688,198.176 219.688,198.676 223.5,199.5C 218.489,199.666 213.489,199.499 208.5,199C 201.783,196.724 194.949,194.891 188,193.5C 186.644,194.38 185.144,194.714 183.5,194.5C 183.678,197.216 184.178,199.883 185,202.5C 185.667,198.5 186.333,198.5 187,202.5C 187.83,208.196 187.663,213.863 186.5,219.5C 185.28,220.711 184.113,220.711 183,219.5C 182.517,220.448 182.351,221.448 182.5,222.5C 225.488,221.711 268.488,221.211 311.5,221C 313.862,219.269 316.529,218.435 319.5,218.5C 317.192,219.558 314.858,220.724 312.5,222C 268.851,223.593 225.184,223.926 181.5,223C 180.512,211.581 180.179,200.081 180.5,188.5C 181.833,188.5 183.167,188.5 184.5,188.5 Z"/></g>
<g><path style="opacity:1" fill="#e64b3c" d="M 319.5,218.5 C 316.529,218.435 313.862,219.269 311.5,221C 268.488,221.211 225.488,221.711 182.5,222.5C 182.351,221.448 182.517,220.448 183,219.5C 184.113,220.711 185.28,220.711 186.5,219.5C 187.663,213.863 187.83,208.196 187,202.5C 186.333,198.5 185.667,198.5 185,202.5C 184.178,199.883 183.678,197.216 183.5,194.5C 185.144,194.714 186.644,194.38 188,193.5C 194.949,194.891 201.783,196.724 208.5,199C 213.489,199.499 218.489,199.666 223.5,199.5C 241.154,200.53 258.821,200.697 276.5,200C 281.476,198.919 286.476,197.919 291.5,197C 293.119,196.764 294.119,195.931 294.5,194.5C 302.955,193.294 310.789,190.627 318,186.5C 321.68,187.513 324.013,189.847 325,193.5C 326.9,201.182 326.9,208.849 325,216.5C 323.556,218.155 321.722,218.822 319.5,218.5 Z"/></g>
<g><path style="opacity:0.106" fill="#c26d64" d="M 202.5,193.5 C 215.981,196.691 229.648,198.691 243.5,199.5C 245.696,199.495 247.696,199.162 249.5,198.5C 252.167,198.5 254.833,198.5 257.5,198.5C 258.793,199.158 260.293,199.492 262,199.5C 273.017,198.929 283.851,197.263 294.5,194.5C 294.119,195.931 293.119,196.764 291.5,197C 286.476,197.919 281.476,198.919 276.5,200C 258.821,200.697 241.154,200.53 223.5,199.5C 219.688,198.676 215.688,198.176 211.5,198C 208.223,196.688 205.223,195.188 202.5,193.5 Z"/></g>
<g><path style="opacity:1" fill="#4ea856" d="M 133.5,237.5 C 133.5,238.167 133.5,238.833 133.5,239.5C 132.35,244.316 132.184,249.316 133,254.5C 134.526,264.897 136.026,275.23 137.5,285.5C 125.044,284.68 112.71,283.18 100.5,281C 99.2412,280.077 97.9079,279.243 96.5,278.5C 93.8045,272.696 91.1378,267.029 88.5,261.5C 85.7211,254.072 83.3878,246.405 81.5,238.5C 82.1174,238.389 82.6174,238.056 83,237.5C 83.6477,232.796 83.481,228.129 82.5,223.5C 97.7799,225.317 113.113,226.817 128.5,228C 130.205,231.168 131.038,234.668 131,238.5C 131.671,237.748 132.504,237.414 133.5,237.5 Z"/></g>
<g><path style="opacity:0.894" fill="#6f8ccd" d="M 297.5,165.5 C 302.463,166.254 307.463,166.587 312.5,166.5C 312.238,167.978 312.571,169.311 313.5,170.5C 319.363,172.844 324.196,176.511 328,181.5C 329.269,186.642 330.936,191.642 333,196.5C 333.667,205.167 333.667,213.833 333,222.5C 329.748,227.334 326.748,232.334 324,237.5C 320.822,238.67 318.322,240.67 316.5,243.5C 310.435,246.617 304.102,248.617 297.5,249.5C 259.182,250.297 220.849,250.797 182.5,251C 181.505,279.093 181.172,307.259 181.5,335.5C 181.223,338.448 181.556,341.281 182.5,344C 193.161,344.5 203.828,344.667 214.5,344.5C 214.169,322.66 214.503,300.994 215.5,279.5C 244.5,279.5 273.5,279.5 302.5,279.5C 273.671,280.498 244.671,280.831 215.5,280.5C 215.5,302.5 215.5,324.5 215.5,346.5C 203.314,346.446 191.314,346.112 179.5,345.5C 179.5,313.5 179.5,281.5 179.5,249.5C 215.168,249.667 250.835,249.5 286.5,249C 323.241,246.044 337.407,226.544 329,190.5C 327.656,187.135 325.823,184.135 323.5,181.5C 321.588,178.025 318.922,175.192 315.5,173C 309.436,170.493 303.436,167.993 297.5,165.5 Z"/></g>
<g><path style="opacity:1" fill="#eebd48" d="M 73.5,225.5 C 73.5,228.5 73.5,231.5 73.5,234.5C 72.4138,234.38 71.7472,233.713 71.5,232.5C 71.2591,228.348 70.2591,224.515 68.5,221C 59.2891,218.197 49.9558,215.697 40.5,213.5C 37.1285,210.189 33.6285,210.189 30,213.5C 30.8206,218.051 31.4872,222.718 32,227.5C 35.0488,233.056 36.7155,239.056 37,245.5C 37.9138,244.346 38.7471,244.513 39.5,246C 37.1975,247.95 36.8641,250.283 38.5,253C 39.4235,254.811 40.2569,254.645 41,252.5C 41.3333,254.5 41.6667,256.5 42,258.5C 43.9217,260.895 45.4217,263.561 46.5,266.5C 48.5428,262.768 50.8761,262.601 53.5,266C 51.9984,266.583 50.6651,267.416 49.5,268.5C 52.0119,269.795 54.6786,270.461 57.5,270.5C 56.9783,266.359 58.6449,264.192 62.5,264C 63.1667,267 63.8333,270 64.5,273C 69.9429,275.78 75.6095,277.613 81.5,278.5C 75.4371,279.162 69.7704,277.996 64.5,275C 59.0696,274.638 53.7363,273.805 48.5,272.5C 46.5165,272.617 44.8498,271.95 43.5,270.5C 32.8228,250.785 26.6561,229.785 25,207.5C 25.7387,206.426 26.7387,205.759 28,205.5C 43.109,209.856 58.109,214.19 73,218.5C 73.4966,220.81 73.6633,223.143 73.5,225.5 Z"/></g>
<g><path style="opacity:0.917" fill="#4d82e0" d="M 297.5,249.5 C 290.905,251.302 283.905,252.135 276.5,252C 246.5,252.333 216.5,252.667 186.5,253C 185.953,253.925 185.287,254.758 184.5,255.5C 183.225,270.005 183.225,284.505 184.5,299C 183.74,310.817 183.24,322.65 183,334.5C 182.617,335.056 182.117,335.389 181.5,335.5C 181.172,307.259 181.505,279.093 182.5,251C 220.849,250.797 259.182,250.297 297.5,249.5 Z"/></g>
<g><path style="opacity:0.388" fill="#e2c574" d="M 73.5,225.5 C 75.3505,226.866 75.6838,228.533 74.5,230.5C 77.2979,246.697 81.7979,262.364 88,277.5C 89.0798,280.237 88.2464,281.904 85.5,282.5C 81.869,281.509 78.2023,280.676 74.5,280C 65.4462,278.408 56.7795,275.908 48.5,272.5C 53.7363,273.805 59.0696,274.638 64.5,275C 69.7704,277.996 75.4371,279.162 81.5,278.5C 82.5676,279.434 83.901,279.768 85.5,279.5C 84.1819,272.377 82.3486,265.377 80,258.5C 79.3161,256.641 78.3161,254.974 77,253.5C 75.8277,247.16 74.6611,240.827 73.5,234.5C 73.5,231.5 73.5,228.5 73.5,225.5 Z"/></g>
<g><path style="opacity:0.929" fill="#5680da" d="M 322.5,138.5 C 335.027,143.01 345.693,150.344 354.5,160.5C 355.781,164.433 358.114,167.433 361.5,169.5C 361.5,169.833 361.5,170.167 361.5,170.5C 360.957,170.56 360.624,170.893 360.5,171.5C 363.77,177.81 365.937,184.477 367,191.5C 371.166,216.982 365.166,239.648 349,259.5C 336.374,272.556 320.874,279.223 302.5,279.5C 273.5,279.5 244.5,279.5 215.5,279.5C 217.969,278.683 220.635,278.183 223.5,278C 250.165,277.5 276.831,277.333 303.5,277.5C 303.5,276.5 303.5,275.5 303.5,274.5C 308.499,275.084 313.499,275.251 318.5,275C 323.929,274.286 328.595,271.952 332.5,268C 336.814,267.852 339.481,265.685 340.5,261.5C 342.567,260.866 344.4,259.866 346,258.5C 345.871,254.418 347.538,251.418 351,249.5C 351.511,247.122 352.178,244.788 353,242.5C 354,242.833 355,243.167 356,243.5C 366.07,226.224 367.904,208.057 361.5,189C 363.446,184.45 362.28,180.95 358,178.5C 358.107,175.443 356.94,173.109 354.5,171.5C 354.2,167.371 352.2,164.538 348.5,163C 349.973,162.29 350.64,161.124 350.5,159.5C 348.058,159.646 347.391,158.813 348.5,157C 345.465,153.63 342.132,150.63 338.5,148C 334.223,148.475 331.223,146.808 329.5,143C 327.392,142.64 325.392,141.973 323.5,141C 322.748,140.329 322.414,139.496 322.5,138.5 Z"/></g>
<g><path style="opacity:0.664" fill="#69a26e" d="M 133.5,239.5 C 135.098,255.955 137.432,272.288 140.5,288.5C 126.22,286.619 111.886,285.119 97.5,284C 93.0602,277.073 90.0602,269.573 88.5,261.5C 91.1378,267.029 93.8045,272.696 96.5,278.5C 97.9079,279.243 99.2412,280.077 100.5,281C 112.71,283.18 125.044,284.68 137.5,285.5C 136.026,275.23 134.526,264.897 133,254.5C 132.184,249.316 132.35,244.316 133.5,239.5 Z"/></g>
<g><path style="opacity:0.908" fill="#e3c26c" d="M 94.5,292.5 C 81.3659,289.633 68.3659,286.3 55.5,282.5C 55.6469,285.792 56.6469,288.792 58.5,291.5C 55.9021,289.696 53.7354,287.362 52,284.5C 51.0851,282.08 51.9185,280.747 54.5,280.5C 67.4702,283.659 80.4702,286.659 93.5,289.5C 94.1272,290.417 94.4606,291.417 94.5,292.5 Z"/></g>
<g><path style="opacity:1" fill="#f1bd3d" d="M 94.5,292.5 C 98.044,298.534 101.877,304.534 106,310.5C 111.004,316.336 116.171,322.003 121.5,327.5C 121.343,328.873 121.51,330.207 122,331.5C 123.667,332.5 125.333,333.5 127,334.5C 127.483,335.448 127.649,336.448 127.5,337.5C 128.833,337.5 130.167,337.5 131.5,337.5C 131.5,338.5 131.5,339.5 131.5,340.5C 125.901,340.425 120.901,338.591 116.5,335C 111.724,333.775 107.057,332.275 102.5,330.5C 84.6564,320.984 69.9897,307.984 58.5,291.5C 56.6469,288.792 55.6469,285.792 55.5,282.5C 68.3659,286.3 81.3659,289.633 94.5,292.5 Z"/></g>
<g><path style="opacity:0.761" fill="#68a16f" d="M 121.5,318.5 C 118.249,315.754 115.083,312.754 112,309.5C 110.056,305.89 107.723,302.557 105,299.5C 103.259,296.691 102.092,293.691 101.5,290.5C 115.617,291.328 129.617,292.995 143.5,295.5C 147.455,310.212 153.622,323.879 162,336.5C 163.815,338.405 165.815,340.072 168,341.5C 170.308,345.532 169.142,347.032 164.5,346C 157.46,343.264 150.46,340.431 143.5,337.5C 134.872,332.529 127.538,326.196 121.5,318.5 Z"/></g>
<g><path style="opacity:1" fill="#4ea757" d="M 121.5,318.5 C 118.019,314.22 115.019,309.554 112.5,304.5C 111.675,303.614 110.675,303.281 109.5,303.5C 108.828,300.356 107.828,297.356 106.5,294.5C 117.849,294.849 129.183,295.515 140.5,296.5C 143.691,305.916 147.191,315.249 151,324.5C 155.864,329.547 159.697,335.213 162.5,341.5C 155.076,340.514 148.576,337.514 143,332.5C 137.177,331.997 133.01,329.164 130.5,324C 127.354,322.343 124.354,320.509 121.5,318.5 Z"/></g>
<g><path style="opacity:0.514" fill="#dec068" d="M 121.5,327.5 C 127.962,333.898 135.295,339.065 143.5,343C 145.037,344.11 145.703,345.61 145.5,347.5C 130.073,344.275 115.74,338.609 102.5,330.5C 107.057,332.275 111.724,333.775 116.5,335C 120.901,338.591 125.901,340.425 131.5,340.5C 131.5,339.5 131.5,338.5 131.5,337.5C 130.167,337.5 128.833,337.5 127.5,337.5C 127.649,336.448 127.483,335.448 127,334.5C 125.333,333.5 123.667,332.5 122,331.5C 121.51,330.207 121.343,328.873 121.5,327.5 Z"/></g>
</svg>
